# xmcd
#
# Track frame offsets:
#	150
#	19095
#	36186
#	50743
#	66776
#	84487
#	103069
#	119844
#	133369
#	152739
#	172925
#	190188
#	211339
#	230106
#	242223
#
# Disc length: 3461 seconds
#
# Revision: 0
# Processed by: cddbd v1.5.2PL0 Copyright (c) Steve Scherf et al.
# Submitted via: audiograbber 1.83.01
#
DISCID=dc0d830f
DTITLE=Chartbusters - Hot Country hits Vol 182
DYEAR=1999
DGENRE=Country
TTITLE0=Keith Urban - Its a love thing
TTITLE1=Ty Herndon - Steam
TTITLE2=Lorrie Morgan - Here I go again
TTITLE3=Jerry Kilgore - Love Trip
TTITLE4=Pam Tillis - After a Kiss
TTITLE5=Dwight Yoakam - Thinking about Leaving
TTITLE6=Joe Diffie - The Quitting Kind
TTITLE7=Mindy McCready - All I want is Everything
TTITLE8=George Jones - The Cold Hard Truth
TTITLE9=Paul Brandt - Its a Beautiful Thing
TTITLE10=Dixie Chicks - Sin Wagon
TTITLE11=Tracy Byrd - Put Your Hand in Mine
TTITLE12=Lace - I want a man
TTITLE13=George Jones - Sinners and Saints
TTITLE14=Suzy Bogguss - Goodnight
EXTD=
EXTT0=
EXTT1=
EXTT2=
EXTT3=
EXTT4=
EXTT5=
EXTT6=
EXTT7=
EXTT8=
EXTT9=
EXTT10=
EXTT11=
EXTT12=
EXTT13=
EXTT14=
PLAYORDER=
